Output #0, mpeg, to '02.mpg':
    Stream #0:0: Video: mpeg1video, yuv420p, 640x480, q=2-31, 400 kb/s, 25 tbn
[mpeg @ 0xaaaae5563b50] VBV buffer size not set, using default size of 230KB
If you want the mpeg file to be compliant to some specification
Like DVD, VCD or others, make sure you set the correct buffer size
视频编码
pts:0 pts_time:0 dts:-3600 dts_time:-0.04 duration:0 duration_time:0 stream_index:0
[mpeg @ 0xaaaae5563b50] buffer underflow st=0 bufi=11679 size=26214
[mpeg @ 0xaaaae5563b50] buffer underflow st=0 bufi=13720 size=26214
[mpeg @ 0xaaaae5563b50] buffer underflow st=0 bufi=15761 size=26214
[mpeg @ 0xaaaae5563b50] buffer underflow st=0 bufi=17802 size=26214
[mpeg @ 0xaaaae5563b50] buffer underflow st=0 bufi=19843 size=26214
[mpeg @ 0xaaaae5563b50] buffer underflow st=0 bufi=21884 size=26214
[mpeg @ 0xaaaae5563b50] buffer underflow st=0 bufi=23925 size=26214
[mpeg @ 0xaaaae5563b50] buffer underflow st=0 bufi=25966 size=26214
pts:3600 pts_time:0.04 dts:0 dts_time:0 duration:0 duration_time:0 stream_index:0
[mpeg @ 0xaaaae5563b50] buffer underflow st=0 bufi=1784 size=9694
[mpeg @ 0xaaaae5563b50] buffer underflow st=0 bufi=3825 size=9694
[mpeg @ 0xaaaae5563b50] buffer underflow st=0 bufi=5866 size=9694
[mpeg @ 0xaaaae5563b50] buffer underflow st=0 bufi=7907 size=9694
pts:7200 pts_time:0.08 dts:3600 dts_time:0.04 duration:0 duration_time:0 stream_index:0
[mpeg @ 0xaaaae5563b50] buffer underflow st=0 bufi=245 size=21260
[mpeg @ 0xaaaae5563b50] buffer underflow st=0 bufi=2286 size=21260
[mpeg @ 0xaaaae5563b50] buffer underflow st=0 bufi=4327 size=21260
[mpeg @ 0xaaaae5563b50] buffer underflow st=0 bufi=6368 size=21260
[mpeg @ 0xaaaae5563b50] buffer underflow st=0 bufi=8409 size=21260
[mpeg @ 0xaaaae5563b50] buffer underflow st=0 bufi=10450 size=21260
[mpeg @ 0xaaaae5563b50] buffer underflow st=0 bufi=12491 size=21260
[mpeg @ 0xaaaae5563b50] buffer underflow st=0 bufi=14532 size=21260
[mpeg @ 0xaaaae5563b50] buffer underflow st=0 bufi=16573 size=21260
[mpeg @ 0xaaaae5563b50] buffer underflow st=0 bufi=18614 size=21260
[mpeg @ 0xaaaae5563b50] buffer underflow st=0 bufi=20655 size=21260
pts:10800 pts_time:0.12 dts:7200 dts_time:0.08 duration:0 duration_time:0 stream_index:0
[mpeg @ 0xaaaae5563b50] buffer underflow st=0 bufi=1427 size=1532
pts:14400 pts_time:0.16 dts:10800 dts_time:0.12 duration:0 duration_time:0 stream_index:0
pts:18000 pts_time:0.2 dts:14400 dts_time:0.16 duration:0 duration_time:0 stream_index:0
pts:21600 pts_time:0.24 dts:18000 dts_time:0.2 duration:0 duration_time:0 stream_index:0
pts:25200 pts_time:0.28 dts:21600 dts_time:0.24 duration:0 duration_time:0 stream_index:0
[mpeg @ 0xaaaae5563b50] buffer underflow st=0 bufi=295 size=1509
pts:28800 pts_time:0.32 dts:25200 dts_time:0.28 duration:0 duration_time:0 stream_index:0
pts:32400 pts_time:0.36 dts:28800 dts_time:0.32 duration:0 duration_time:0 stream_index:0
[mpeg @ 0xaaaae5563b50] buffer underflow st=0 bufi=135 size=225
pts:36000 pts_time:0.4 dts:32400 dts_time:0.36 duration:0 duration_time:0 stream_index:0
pts:39600 pts_time:0.44 dts:36000 dts_time:0.4 duration:0 duration_time:0 stream_index:0
[mpeg @ 0xaaaae5563b50] buffer underflow st=0 bufi=1481 size=16855
[mpeg @ 0xaaaae5563b50] buffer underflow st=0 bufi=3522 size=16855
[mpeg @ 0xaaaae5563b50] buffer underflow st=0 bufi=5563 size=16855
[mpeg @ 0xaaaae5563b50] buffer underflow st=0 bufi=7604 size=16855
[mpeg @ 0xaaaae5563b50] buffer underflow st=0 bufi=9645 size=16855
[mpeg @ 0xaaaae5563b50] buffer underflow st=0 bufi=11686 size=16855
[mpeg @ 0xaaaae5563b50] buffer underflow st=0 bufi=13727 size=16855
[mpeg @ 0xaaaae5563b50] buffer underflow st=0 bufi=15768 size=16855
pts:43200 pts_time:0.48 dts:39600 dts_time:0.44 duration:0 duration_time:0 stream_index:0
[mpeg @ 0xaaaae5563b50] buffer underflow st=0 bufi=945 size=7438
[mpeg @ 0xaaaae5563b50] buffer underflow st=0 bufi=2986 size=7438
[mpeg @ 0xaaaae5563b50] buffer underflow st=0 bufi=5027 size=7438
[mpeg @ 0xaaaae5563b50] buffer underflow st=0 bufi=7068 size=7438
pts:46800 pts_time:0.52 dts:43200 dts_time:0.48 duration:0 duration_time:0 stream_index:0
pts:50400 pts_time:0.56 dts:46800 dts_time:0.52 duration:0 duration_time:0 stream_index:0
[mpeg @ 0xaaaae5563b50] buffer underflow st=0 bufi=485 size=514
pts:54000 pts_time:0.6 dts:50400 dts_time:0.56 duration:0 duration_time:0 stream_index:0
pts:57600 pts_time:0.64 dts:54000 dts_time:0.6 duration:0 duration_time:0 stream_index:0
[mpeg @ 0xaaaae5563b50] buffer underflow st=0 bufi=692 size=886
pts:61200 pts_time:0.68 dts:57600 dts_time:0.64 duration:0 duration_time:0 stream_index:0
[mpeg @ 0xaaaae5563b50] buffer underflow st=0 bufi=1838 size=1939
pts:64800 pts_time:0.72 dts:61200 dts_time:0.68 duration:0 duration_time:0 stream_index:0
pts:68400 pts_time:0.76 dts:64800 dts_time:0.72 duration:0 duration_time:0 stream_index:0
[mpeg @ 0xaaaae5563b50] buffer underflow st=0 bufi=738 size=10151
[mpeg @ 0xaaaae5563b50] buffer underflow st=0 bufi=2779 size=10151
[mpeg @ 0xaaaae5563b50] buffer underflow st=0 bufi=4820 size=10151
[mpeg @ 0xaaaae5563b50] buffer underflow st=0 bufi=6861 size=10151
[mpeg @ 0xaaaae5563b50] buffer underflow st=0 bufi=8902 size=10151
pts:72000 pts_time:0.8 dts:68400 dts_time:0.76 duration:0 duration_time:0 stream_index:0
[mpeg @ 0xaaaae5563b50] buffer underflow st=0 bufi=783 size=981
pts:75600 pts_time:0.84 dts:72000 dts_time:0.8 duration:0 duration_time:0 stream_index:0
[mpeg @ 0xaaaae5563b50] buffer underflow st=0 bufi=1834 size=2592
pts:79200 pts_time:0.88 dts:75600 dts_time:0.84 duration:0 duration_time:0 stream_index:0
[mpeg @ 0xaaaae5563b50] buffer underflow st=0 bufi=1274 size=7850
[mpeg @ 0xaaaae5563b50] buffer underflow st=0 bufi=3315 size=7850
[mpeg @ 0xaaaae5563b50] buffer underflow st=0 bufi=5356 size=7850
[mpeg @ 0xaaaae5563b50] buffer underflow st=0 bufi=7397 size=7850
pts:82800 pts_time:0.92 dts:79200 dts_time:0.88 duration:0 duration_time:0 stream_index:0
[mpeg @ 0xaaaae5563b50] buffer underflow st=0 bufi=1579 size=15384
[mpeg @ 0xaaaae5563b50] buffer underflow st=0 bufi=3620 size=15384
[mpeg @ 0xaaaae5563b50] buffer underflow st=0 bufi=5661 size=15384
[mpeg @ 0xaaaae5563b50] buffer underflow st=0 bufi=7702 size=15384
[mpeg @ 0xaaaae5563b50] buffer underflow st=0 bufi=9743 size=15384
[mpeg @ 0xaaaae5563b50] buffer underflow st=0 bufi=11784 size=15384
[mpeg @ 0xaaaae5563b50] buffer underflow st=0 bufi=13825 size=15384
pts:86400 pts_time:0.96 dts:82800 dts_time:0.92 duration:0 duration_time:0 stream_index:0
[mpeg @ 0xaaaae5563b50] buffer underflow st=0 bufi=473 size=1623
pts:90000 pts_time:1 dts:86400 dts_time:0.96 duration:0 duration_time:0 stream_index:0
pts:93600 pts_time:1.04 dts:90000 dts_time:1 duration:0 duration_time:0 stream_index:0
[mpeg @ 0xaaaae5563b50] buffer underflow st=0 bufi=556 size=1538
pts:97200 pts_time:1.08 dts:93600 dts_time:1.04 duration:0 duration_time:0 stream_index:0
[mpeg @ 0xaaaae5563b50] buffer underflow st=0 bufi=1050 size=8480
[mpeg @ 0xaaaae5563b50] buffer underflow st=0 bufi=3091 size=8480
[mpeg @ 0xaaaae5563b50] buffer underflow st=0 bufi=5132 size=8480
[mpeg @ 0xaaaae5563b50] buffer underflow st=0 bufi=7173 size=8480
pts:100800 pts_time:1.12 dts:97200 dts_time:1.08 duration:0 duration_time:0 stream_index:0
pts:104400 pts_time:1.16 dts:100800 dts_time:1.12 duration:0 duration_time:0 stream_index:0
[mpeg @ 0xaaaae5563b50] buffer underflow st=0 bufi=115 size=1235
pts:108000 pts_time:1.2 dts:104400 dts_time:1.16 duration:0 duration_time:0 stream_index:0
[mpeg @ 0xaaaae5563b50] buffer underflow st=0 bufi=912 size=1893
pts:111600 pts_time:1.24 dts:108000 dts_time:1.2 duration:0 duration_time:0 stream_index:0
[mpeg @ 0xaaaae5563b50] buffer underflow st=0 bufi=1051 size=4309
[mpeg @ 0xaaaae5563b50] buffer underflow st=0 bufi=3092 size=4309
pts:115200 pts_time:1.28 dts:111600 dts_time:1.24 duration:0 duration_time:0 stream_index:0
pts:118800 pts_time:1.32 dts:115200 dts_time:1.28 duration:0 duration_time:0 stream_index:0
[mpeg @ 0xaaaae5563b50] buffer underflow st=0 bufi=285 size=2895
[mpeg @ 0xaaaae5563b50] buffer underflow st=0 bufi=2326 size=2895
pts:122400 pts_time:1.36 dts:118800 dts_time:1.32 duration:0 duration_time:0 stream_index:0
pts:126000 pts_time:1.4 dts:122400 dts_time:1.36 duration:0 duration_time:0 stream_index:0
[mpeg @ 0xaaaae5563b50] buffer underflow st=0 bufi=228 size=29829
[mpeg @ 0xaaaae5563b50] buffer underflow st=0 bufi=2269 size=29829
[mpeg @ 0xaaaae5563b50] buffer underflow st=0 bufi=4310 size=29829
[mpeg @ 0xaaaae5563b50] buffer underflow st=0 bufi=6351 size=29829
[mpeg @ 0xaaaae5563b50] buffer underflow st=0 bufi=8392 size=29829
[mpeg @ 0xaaaae5563b50] buffer underflow st=0 bufi=10433 size=29829
[mpeg @ 0xaaaae5563b50] buffer underflow st=0 bufi=12474 size=29829
[mpeg @ 0xaaaae5563b50] buffer underflow st=0 bufi=14515 size=29829
[mpeg @ 0xaaaae5563b50] buffer underflow st=0 bufi=16556 size=29829
[mpeg @ 0xaaaae5563b50] buffer underflow st=0 bufi=18597 size=29829
[mpeg @ 0xaaaae5563b50] buffer underflow st=0 bufi=20638 size=29829
[mpeg @ 0xaaaae5563b50] buffer underflow st=0 bufi=22679 size=29829
[mpeg @ 0xaaaae5563b50] buffer underflow st=0 bufi=24720 size=29829
[mpeg @ 0xaaaae5563b50] buffer underflow st=0 bufi=26761 size=29829
[mpeg @ 0xaaaae5563b50] buffer underflow st=0 bufi=28802 size=29829
pts:129600 pts_time:1.44 dts:126000 dts_time:1.4 duration:0 duration_time:0 stream_index:0
pts:133200 pts_time:1.48 dts:129600 dts_time:1.44 duration:0 duration_time:0 stream_index:0
[mpeg @ 0xaaaae5563b50] buffer underflow st=0 bufi=824 size=3500
[mpeg @ 0xaaaae5563b50] buffer underflow st=0 bufi=2865 size=3500
pts:136800 pts_time:1.52 dts:133200 dts_time:1.48 duration:0 duration_time:0 stream_index:0
[mpeg @ 0xaaaae5563b50] buffer underflow st=0 bufi=1397 size=1504
pts:140400 pts_time:1.56 dts:136800 dts_time:1.52 duration:0 duration_time:0 stream_index:0
pts:144000 pts_time:1.6 dts:140400 dts_time:1.56 duration:0 duration_time:0 stream_index:0
[mpeg @ 0xaaaae5563b50] buffer underflow st=0 bufi=1034 size=5809
[mpeg @ 0xaaaae5563b50] buffer underflow st=0 bufi=3063 size=5809
[mpeg @ 0xaaaae5563b50] buffer underflow st=0 bufi=5104 size=5809
pts:147600 pts_time:1.64 dts:144000 dts_time:1.6 duration:0 duration_time:0 stream_index:0
pts:151200 pts_time:1.68 dts:147600 dts_time:1.64 duration:0 duration_time:0 stream_index:0
pts:154800 pts_time:1.72 dts:151200 dts_time:1.68 duration:0 duration_time:0 stream_index:0
[mpeg @ 0xaaaae5563b50] buffer underflow st=0 bufi=1149 size=1529
pts:158400 pts_time:1.76 dts:154800 dts_time:1.72 duration:0 duration_time:0 stream_index:0
[mpeg @ 0xaaaae5563b50] buffer underflow st=0 bufi=1652 size=2164
pts:162000 pts_time:1.8 dts:158400 dts_time:1.76 duration:0 duration_time:0 stream_index:0
pts:165600 pts_time:1.84 dts:162000 dts_time:1.8 duration:0 duration_time:0 stream_index:0
[mpeg @ 0xaaaae5563b50] buffer underflow st=0 bufi=325 size=5822
[mpeg @ 0xaaaae5563b50] buffer underflow st=0 bufi=2366 size=5822
[mpeg @ 0xaaaae5563b50] buffer underflow st=0 bufi=4407 size=5822
pts:169200 pts_time:1.88 dts:165600 dts_time:1.84 duration:0 duration_time:0 stream_index:0
[mpeg @ 0xaaaae5563b50] buffer underflow st=0 bufi=617 size=19739
[mpeg @ 0xaaaae5563b50] buffer underflow st=0 bufi=2658 size=19739
[mpeg @ 0xaaaae5563b50] buffer underflow st=0 bufi=4699 size=19739
[mpeg @ 0xaaaae5563b50] buffer underflow st=0 bufi=6740 size=19739
[mpeg @ 0xaaaae5563b50] buffer underflow st=0 bufi=8781 size=19739
[mpeg @ 0xaaaae5563b50] buffer underflow st=0 bufi=10822 size=19739
[mpeg @ 0xaaaae5563b50] buffer underflow st=0 bufi=12863 size=19739
[mpeg @ 0xaaaae5563b50] buffer underflow st=0 bufi=14904 size=19739
[mpeg @ 0xaaaae5563b50] buffer underflow st=0 bufi=16945 size=19739
[mpeg @ 0xaaaae5563b50] buffer underflow st=0 bufi=18986 size=19739
pts:172800 pts_time:1.92 dts:169200 dts_time:1.88 duration:0 duration_time:0 stream_index:0
pts:176400 pts_time:1.96 dts:172800 dts_time:1.92 duration:0 duration_time:0 stream_index:0
[mpeg @ 0xaaaae5563b50] buffer underflow st=0 bufi=867 size=1510
pts:180000 pts_time:2 dts:176400 dts_time:1.96 duration:0 duration_time:0 stream_index:0
[mpeg @ 0xaaaae5563b50] buffer underflow st=0 bufi=1389 size=1989
pts:183600 pts_time:2.04 dts:180000 dts_time:2 duration:0 duration_time:0 stream_index:0
[mpeg @ 0xaaaae5563b50] buffer underflow st=0 bufi=1432 size=1583
pts:187200 pts_time:2.08 dts:183600 dts_time:2.04 duration:0 duration_time:0 stream_index:0
pts:190800 pts_time:2.12 dts:187200 dts_time:2.08 duration:0 duration_time:0 stream_index:0
[mpeg @ 0xaaaae5563b50] buffer underflow st=0 bufi=493 size=880
pts:194400 pts_time:2.16 dts:190800 dts_time:2.12 duration:0 duration_time:0 stream_index:0
pts:198000 pts_time:2.2 dts:194400 dts_time:2.16 duration:0 duration_time:0 stream_index:0
[mpeg @ 0xaaaae5563b50] buffer underflow st=0 bufi=357 size=3569
[mpeg @ 0xaaaae5563b50] buffer underflow st=0 bufi=2398 size=3569
pts:201600 pts_time:2.24 dts:198000 dts_time:2.2 duration:0 duration_time:0 stream_index:0
[mpeg @ 0xaaaae5563b50] buffer underflow st=0 bufi=861 size=4496
[mpeg @ 0xaaaae5563b50] buffer underflow st=0 bufi=2902 size=4496
pts:205200 pts_time:2.28 dts:201600 dts_time:2.24 duration:0 duration_time:0 stream_index:0
pts:208800 pts_time:2.32 dts:205200 dts_time:2.28 duration:0 duration_time:0 stream_index:0
[mpeg @ 0xaaaae5563b50] buffer underflow st=0 bufi=29 size=491
pts:212400 pts_time:2.36 dts:208800 dts_time:2.32 duration:0 duration_time:0 stream_index:0
[mpeg @ 0xaaaae5563b50] buffer underflow st=0 bufi=1570 size=22786
[mpeg @ 0xaaaae5563b50] buffer underflow st=0 bufi=3611 size=22786
[mpeg @ 0xaaaae5563b50] buffer underflow st=0 bufi=5652 size=22786
[mpeg @ 0xaaaae5563b50] buffer underflow st=0 bufi=7693 size=22786
[mpeg @ 0xaaaae5563b50] buffer underflow st=0 bufi=9734 size=22786
[mpeg @ 0xaaaae5563b50] buffer underflow st=0 bufi=11775 size=22786
[mpeg @ 0xaaaae5563b50] buffer underflow st=0 bufi=13816 size=22786
[mpeg @ 0xaaaae5563b50] buffer underflow st=0 bufi=15857 size=22786
[mpeg @ 0xaaaae5563b50] buffer underflow st=0 bufi=17898 size=22786
[mpeg @ 0xaaaae5563b50] buffer underflow st=0 bufi=19939 size=22786
[mpeg @ 0xaaaae5563b50] buffer underflow st=0 bufi=21980 size=22786
pts:216000 pts_time:2.4 dts:212400 dts_time:2.36 duration:0 duration_time:0 stream_index:0
[mpeg @ 0xaaaae5563b50] buffer underflow st=0 bufi=1226 size=1896
pts:219600 pts_time:2.44 dts:216000 dts_time:2.4 duration:0 duration_time:0 stream_index:0
[mpeg @ 0xaaaae5563b50] buffer underflow st=0 bufi=1362 size=1686
pts:223200 pts_time:2.48 dts:219600 dts_time:2.44 duration:0 duration_time:0 stream_index:0
pts:226800 pts_time:2.52 dts:223200 dts_time:2.48 duration:0 duration_time:0 stream_index:0
[mpeg @ 0xaaaae5563b50] buffer underflow st=0 bufi=393 size=882
pts:230400 pts_time:2.56 dts:226800 dts_time:2.52 duration:0 duration_time:0 stream_index:0
pts:234000 pts_time:2.6 dts:230400 dts_time:2.56 duration:0 duration_time:0 stream_index:0
[mpeg @ 0xaaaae5563b50] buffer underflow st=0 bufi=866 size=3882
[mpeg @ 0xaaaae5563b50] buffer underflow st=0 bufi=2907 size=3882
pts:237600 pts_time:2.64 dts:234000 dts_time:2.6 duration:0 duration_time:0 stream_index:0
pts:241200 pts_time:2.68 dts:237600 dts_time:2.64 duration:0 duration_time:0 stream_index:0
pts:244800 pts_time:2.72 dts:241200 dts_time:2.68 duration:0 duration_time:0 stream_index:0
[mpeg @ 0xaaaae5563b50] buffer underflow st=0 bufi=107 size=2193
[mpeg @ 0xaaaae5563b50] buffer underflow st=0 bufi=2148 size=2193
pts:248400 pts_time:2.76 dts:244800 dts_time:2.72 duration:0 duration_time:0 stream_index:0
pts:252000 pts_time:2.8 dts:248400 dts_time:2.76 duration:0 duration_time:0 stream_index:0
pts:255600 pts_time:2.84 dts:252000 dts_time:2.8 duration:0 duration_time:0 stream_index:0
[mpeg @ 0xaaaae5563b50] buffer underflow st=0 bufi=160 size=30410
[mpeg @ 0xaaaae5563b50] buffer underflow st=0 bufi=2201 size=30410
[mpeg @ 0xaaaae5563b50] buffer underflow st=0 bufi=4242 size=30410
[mpeg @ 0xaaaae5563b50] buffer underflow st=0 bufi=6283 size=30410
[mpeg @ 0xaaaae5563b50] buffer underflow st=0 bufi=8324 size=30410
[mpeg @ 0xaaaae5563b50] buffer underflow st=0 bufi=10365 size=30410
[mpeg @ 0xaaaae5563b50] buffer underflow st=0 bufi=12406 size=30410
[mpeg @ 0xaaaae5563b50] buffer underflow st=0 bufi=14447 size=30410
[mpeg @ 0xaaaae5563b50] buffer underflow st=0 bufi=16476 size=30410
[mpeg @ 0xaaaae5563b50] buffer underflow st=0 bufi=18517 size=30410
[mpeg @ 0xaaaae5563b50] buffer underflow st=0 bufi=20558 size=30410
[mpeg @ 0xaaaae5563b50] buffer underflow st=0 bufi=22599 size=30410
[mpeg @ 0xaaaae5563b50] buffer underflow st=0 bufi=24640 size=30410
[mpeg @ 0xaaaae5563b50] buffer underflow st=0 bufi=26681 size=30410
[mpeg @ 0xaaaae5563b50] buffer underflow st=0 bufi=28722 size=30410
pts:259200 pts_time:2.88 dts:255600 dts_time:2.84 duration:0 duration_time:0 stream_index:0
[mpeg @ 0xaaaae5563b50] buffer underflow st=0 bufi=344 size=859
pts:262800 pts_time:2.92 dts:259200 dts_time:2.88 duration:0 duration_time:0 stream_index:0
pts:266400 pts_time:2.96 dts:262800 dts_time:2.92 duration:0 duration_time:0 stream_index:0
[mpeg @ 0xaaaae5563b50] buffer underflow st=0 bufi=1384 size=3891
[mpeg @ 0xaaaae5563b50] buffer underflow st=0 bufi=3425 size=3891
pts:270000 pts_time:3 dts:266400 dts_time:2.96 duration:0 duration_time:0 stream_index:0
pts:273600 pts_time:3.04 dts:270000 dts_time:3 duration:0 duration_time:0 stream_index:0
pts:277200 pts_time:3.08 dts:273600 dts_time:3.04 duration:0 duration_time:0 stream_index:0
pts:280800 pts_time:3.12 dts:277200 dts_time:3.08 duration:0 duration_time:0 stream_index:0
[mpeg @ 0xaaaae5563b50] buffer underflow st=0 bufi=1330 size=6594
[mpeg @ 0xaaaae5563b50] buffer underflow st=0 bufi=3371 size=6594
[mpeg @ 0xaaaae5563b50] buffer underflow st=0 bufi=5412 size=6594
pts:284400 pts_time:3.16 dts:280800 dts_time:3.12 duration:0 duration_time:0 stream_index:0
pts:288000 pts_time:3.2 dts:284400 dts_time:3.16 duration:0 duration_time:0 stream_index:0
pts:291600 pts_time:3.24 dts:288000 dts_time:3.2 duration:0 duration_time:0 stream_index:0
[mpeg @ 0xaaaae5563b50] buffer underflow st=0 bufi=673 size=1604
pts:295200 pts_time:3.28 dts:291600 dts_time:3.24 duration:0 duration_time:0 stream_index:0
pts:298800 pts_time:3.32 dts:295200 dts_time:3.28 duration:0 duration_time:0 stream_index:0
[mpeg @ 0xaaaae5563b50] buffer underflow st=0 bufi=1020 size=41828
[mpeg @ 0xaaaae5563b50] buffer underflow st=0 bufi=3061 size=41828
[mpeg @ 0xaaaae5563b50] buffer underflow st=0 bufi=5102 size=41828
[mpeg @ 0xaaaae5563b50] buffer underflow st=0 bufi=7143 size=41828
[mpeg @ 0xaaaae5563b50] buffer underflow st=0 bufi=9184 size=41828
[mpeg @ 0xaaaae5563b50] buffer underflow st=0 bufi=11225 size=41828
[mpeg @ 0xaaaae5563b50] buffer underflow st=0 bufi=13266 size=41828
[mpeg @ 0xaaaae5563b50] buffer underflow st=0 bufi=15307 size=41828
[mpeg @ 0xaaaae5563b50] buffer underflow st=0 bufi=17348 size=41828
[mpeg @ 0xaaaae5563b50] buffer underflow st=0 bufi=19389 size=41828
[mpeg @ 0xaaaae5563b50] buffer underflow st=0 bufi=21430 size=41828
[mpeg @ 0xaaaae5563b50] buffer underflow st=0 bufi=23471 size=41828
[mpeg @ 0xaaaae5563b50] buffer underflow st=0 bufi=25512 size=41828
[mpeg @ 0xaaaae5563b50] buffer underflow st=0 bufi=27553 size=41828
[mpeg @ 0xaaaae5563b50] buffer underflow st=0 bufi=29594 size=41828
[mpeg @ 0xaaaae5563b50] buffer underflow st=0 bufi=31635 size=41828
[mpeg @ 0xaaaae5563b50] buffer underflow st=0 bufi=33676 size=41828
[mpeg @ 0xaaaae5563b50] buffer underflow st=0 bufi=35717 size=41828
[mpeg @ 0xaaaae5563b50] buffer underflow st=0 bufi=37758 size=41828
[mpeg @ 0xaaaae5563b50] buffer underflow st=0 bufi=39799 size=41828
pts:302400 pts_time:3.36 dts:298800 dts_time:3.32 duration:0 duration_time:0 stream_index:0
[mpeg @ 0xaaaae5563b50] buffer underflow st=0 bufi=3 size=121
pts:306000 pts_time:3.4 dts:302400 dts_time:3.36 duration:0 duration_time:0 stream_index:0
[mpeg @ 0xaaaae5563b50] buffer underflow st=0 bufi=1914 size=5667
[mpeg @ 0xaaaae5563b50] buffer underflow st=0 bufi=3955 size=5667
pts:309600 pts_time:3.44 dts:306000 dts_time:3.4 duration:0 duration_time:0 stream_index:0
pts:313200 pts_time:3.48 dts:309600 dts_time:3.44 duration:0 duration_time:0 stream_index:0
[mpeg @ 0xaaaae5563b50] buffer underflow st=0 bufi=111 size=257
pts:316800 pts_time:3.52 dts:313200 dts_time:3.48 duration:0 duration_time:0 stream_index:0
pts:320400 pts_time:3.56 dts:316800 dts_time:3.52 duration:0 duration_time:0 stream_index:0
pts:324000 pts_time:3.6 dts:320400 dts_time:3.56 duration:0 duration_time:0 stream_index:0
pts:327600 pts_time:3.64 dts:324000 dts_time:3.6 duration:0 duration_time:0 stream_index:0
[mpeg @ 0xaaaae5563b50] buffer underflow st=0 bufi=566 size=8534
[mpeg @ 0xaaaae5563b50] buffer underflow st=0 bufi=2607 size=8534
[mpeg @ 0xaaaae5563b50] buffer underflow st=0 bufi=4648 size=8534
[mpeg @ 0xaaaae5563b50] buffer underflow st=0 bufi=6689 size=8534
pts:331200 pts_time:3.68 dts:327600 dts_time:3.64 duration:0 duration_time:0 stream_index:0
pts:334800 pts_time:3.72 dts:331200 dts_time:3.68 duration:0 duration_time:0 stream_index:0
pts:338400 pts_time:3.76 dts:334800 dts_time:3.72 duration:0 duration_time:0 stream_index:0
[mpeg @ 0xaaaae5563b50] buffer underflow st=0 bufi=55 size=85
pts:342000 pts_time:3.8 dts:338400 dts_time:3.76 duration:0 duration_time:0 stream_index:0
[mpeg @ 0xaaaae5563b50] buffer underflow st=0 bufi=2002 size=43904
[mpeg @ 0xaaaae5563b50] buffer underflow st=0 bufi=4043 size=43904
[mpeg @ 0xaaaae5563b50] buffer underflow st=0 bufi=6084 size=43904
[mpeg @ 0xaaaae5563b50] buffer underflow st=0 bufi=8125 size=43904
[mpeg @ 0xaaaae5563b50] buffer underflow st=0 bufi=10166 size=43904
[mpeg @ 0xaaaae5563b50] buffer underflow st=0 bufi=12207 size=43904
[mpeg @ 0xaaaae5563b50] buffer underflow st=0 bufi=14248 size=43904
[mpeg @ 0xaaaae5563b50] buffer underflow st=0 bufi=16289 size=43904
[mpeg @ 0xaaaae5563b50] buffer underflow st=0 bufi=18330 size=43904
[mpeg @ 0xaaaae5563b50] buffer underflow st=0 bufi=20359 size=43904
[mpeg @ 0xaaaae5563b50] buffer underflow st=0 bufi=22400 size=43904
[mpeg @ 0xaaaae5563b50] buffer underflow st=0 bufi=24441 size=43904
[mpeg @ 0xaaaae5563b50] buffer underflow st=0 bufi=26482 size=43904
[mpeg @ 0xaaaae5563b50] buffer underflow st=0 bufi=28523 size=43904
[mpeg @ 0xaaaae5563b50] buffer underflow st=0 bufi=30564 size=43904
[mpeg @ 0xaaaae5563b50] buffer underflow st=0 bufi=32605 size=43904
[mpeg @ 0xaaaae5563b50] buffer underflow st=0 bufi=34646 size=43904
[mpeg @ 0xaaaae5563b50] buffer underflow st=0 bufi=36687 size=43904
[mpeg @ 0xaaaae5563b50] buffer underflow st=0 bufi=38728 size=43904
[mpeg @ 0xaaaae5563b50] buffer underflow st=0 bufi=40769 size=43904
[mpeg @ 0xaaaae5563b50] buffer underflow st=0 bufi=42810 size=43904
pts:345600 pts_time:3.84 dts:342000 dts_time:3.8 duration:0 duration_time:0 stream_index:0
pts:349200 pts_time:3.88 dts:345600 dts_time:3.84 duration:0 duration_time:0 stream_index:0
pts:352800 pts_time:3.92 dts:349200 dts_time:3.88 duration:0 duration_time:0 stream_index:0
[mpeg @ 0xaaaae5563b50] buffer underflow st=0 bufi=54 size=8999
[mpeg @ 0xaaaae5563b50] buffer underflow st=0 bufi=2095 size=8999
[mpeg @ 0xaaaae5563b50] buffer underflow st=0 bufi=4136 size=8999
[mpeg @ 0xaaaae5563b50] buffer underflow st=0 bufi=6177 size=8999
[mpeg @ 0xaaaae5563b50] buffer underflow st=0 bufi=8218 size=8999
pts:356400 pts_time:3.96 dts:352800 dts_time:3.92 duration:0 duration_time:0 stream_index:0
pts:360000 pts_time:4 dts:356400 dts_time:3.96 duration:0 duration_time:0 stream_index:0
[mpeg @ 0xaaaae5563b50] buffer underflow st=0 bufi=1185 size=21731
[mpeg @ 0xaaaae5563b50] buffer underflow st=0 bufi=3226 size=21731
[mpeg @ 0xaaaae5563b50] buffer underflow st=0 bufi=5267 size=21731
[mpeg @ 0xaaaae5563b50] buffer underflow st=0 bufi=7308 size=21731
[mpeg @ 0xaaaae5563b50] buffer underflow st=0 bufi=9349 size=21731
[mpeg @ 0xaaaae5563b50] buffer underflow st=0 bufi=11390 size=21731
[mpeg @ 0xaaaae5563b50] buffer underflow st=0 bufi=13431 size=21731
[mpeg @ 0xaaaae5563b50] buffer underflow st=0 bufi=15472 size=21731
[mpeg @ 0xaaaae5563b50] buffer underflow st=0 bufi=17513 size=21731
[mpeg @ 0xaaaae5563b50] buffer underflow st=0 bufi=19554 size=21731
[mpeg @ 0xaaaae5563b50] buffer underflow st=0 bufi=21595 size=21731
pts:363600 pts_time:4.04 dts:360000 dts_time:4 duration:0 duration_time:0 stream_index:0
[mpeg @ 0xaaaae5563b50] buffer underflow st=0 bufi=1896 size=3430
pts:367200 pts_time:4.08 dts:363600 dts_time:4.04 duration:0 duration_time:0 stream_index:0
[mpeg @ 0xaaaae5563b50] buffer underflow st=0 bufi=498 size=4682
[mpeg @ 0xaaaae5563b50] buffer underflow st=0 bufi=2539 size=4682
[mpeg @ 0xaaaae5563b50] buffer underflow st=0 bufi=4580 size=4682
pts:370800 pts_time:4.12 dts:367200 dts_time:4.08 duration:0 duration_time:0 stream_index:0
[mpeg @ 0xaaaae5563b50] buffer underflow st=0 bufi=1930 size=2159
pts:374400 pts_time:4.16 dts:370800 dts_time:4.12 duration:0 duration_time:0 stream_index:0
[mpeg @ 0xaaaae5563b50] buffer underflow st=0 bufi=1803 size=3051
pts:378000 pts_time:4.2 dts:374400 dts_time:4.16 duration:0 duration_time:0 stream_index:0
[mpeg @ 0xaaaae5563b50] buffer underflow st=0 bufi=784 size=2996
[mpeg @ 0xaaaae5563b50] buffer underflow st=0 bufi=2825 size=2996
pts:381600 pts_time:4.24 dts:378000 dts_time:4.2 duration:0 duration_time:0 stream_index:0
[mpeg @ 0xaaaae5563b50] buffer underflow st=0 bufi=1861 size=2983
pts:385200 pts_time:4.28 dts:381600 dts_time:4.24 duration:0 duration_time:0 stream_index:0
[mpeg @ 0xaaaae5563b50] buffer underflow st=0 bufi=910 size=12723
[mpeg @ 0xaaaae5563b50] buffer underflow st=0 bufi=2951 size=12723
[mpeg @ 0xaaaae5563b50] buffer underflow st=0 bufi=4992 size=12723
[mpeg @ 0xaaaae5563b50] buffer underflow st=0 bufi=7033 size=12723
[mpeg @ 0xaaaae5563b50] buffer underflow st=0 bufi=9074 size=12723
[mpeg @ 0xaaaae5563b50] buffer underflow st=0 bufi=11115 size=12723
pts:388800 pts_time:4.32 dts:385200 dts_time:4.28 duration:0 duration_time:0 stream_index:0
[mpeg @ 0xaaaae5563b50] buffer underflow st=0 bufi=424 size=3329
[mpeg @ 0xaaaae5563b50] buffer underflow st=0 bufi=2465 size=3329
pts:392400 pts_time:4.36 dts:388800 dts_time:4.32 duration:0 duration_time:0 stream_index:0
[mpeg @ 0xaaaae5563b50] buffer underflow st=0 bufi=1168 size=2784
pts:396000 pts_time:4.4 dts:392400 dts_time:4.36 duration:0 duration_time:0 stream_index:0
[mpeg @ 0xaaaae5563b50] buffer underflow st=0 bufi=416 size=2111
pts:399600 pts_time:4.44 dts:396000 dts_time:4.4 duration:0 duration_time:0 stream_index:0
[mpeg @ 0xaaaae5563b50] buffer underflow st=0 bufi=337 size=1929
pts:403200 pts_time:4.48 dts:399600 dts_time:4.44 duration:0 duration_time:0 stream_index:0
[mpeg @ 0xaaaae5563b50] buffer underflow st=0 bufi=440 size=3081
[mpeg @ 0xaaaae5563b50] buffer underflow st=0 bufi=2481 size=3081
pts:406800 pts_time:4.52 dts:403200 dts_time:4.48 duration:0 duration_time:0 stream_index:0
[mpeg @ 0xaaaae5563b50] buffer underflow st=0 bufi=1432 size=2256
pts:410400 pts_time:4.56 dts:406800 dts_time:4.52 duration:0 duration_time:0 stream_index:0
[mpeg @ 0xaaaae5563b50] buffer underflow st=0 bufi=1208 size=2515
pts:414000 pts_time:4.6 dts:410400 dts_time:4.56 duration:0 duration_time:0 stream_index:0
[mpeg @ 0xaaaae5563b50] buffer underflow st=0 bufi=698 size=2931
[mpeg @ 0xaaaae5563b50] buffer underflow st=0 bufi=2739 size=2931
pts:417600 pts_time:4.64 dts:414000 dts_time:4.6 duration:0 duration_time:0 stream_index:0
[mpeg @ 0xaaaae5563b50] buffer underflow st=0 bufi=1840 size=1924
pts:421200 pts_time:4.68 dts:417600 dts_time:4.64 duration:0 duration_time:0 stream_index:0
pts:424800 pts_time:4.72 dts:421200 dts_time:4.68 duration:0 duration_time:0 stream_index:0
[mpeg @ 0xaaaae5563b50] buffer underflow st=0 bufi=128 size=2103
pts:428400 pts_time:4.76 dts:424800 dts_time:4.72 duration:0 duration_time:0 stream_index:0
[mpeg @ 0xaaaae5563b50] buffer underflow st=0 bufi=57 size=9360
[mpeg @ 0xaaaae5563b50] buffer underflow st=0 bufi=2098 size=9360
[mpeg @ 0xaaaae5563b50] buffer underflow st=0 bufi=4139 size=9360
[mpeg @ 0xaaaae5563b50] buffer underflow st=0 bufi=6180 size=9360
[mpeg @ 0xaaaae5563b50] buffer underflow st=0 bufi=8221 size=9360
pts:432000 pts_time:4.8 dts:428400 dts_time:4.76 duration:0 duration_time:0 stream_index:0
[mpeg @ 0xaaaae5563b50] buffer underflow st=0 bufi=893 size=1680
pts:435600 pts_time:4.84 dts:432000 dts_time:4.8 duration:0 duration_time:0 stream_index:0
[mpeg @ 0xaaaae5563b50] buffer underflow st=0 bufi=1245 size=2027
pts:439200 pts_time:4.88 dts:435600 dts_time:4.84 duration:0 duration_time:0 stream_index:0
[mpeg @ 0xaaaae5563b50] buffer underflow st=0 bufi=1250 size=2731
pts:442800 pts_time:4.92 dts:439200 dts_time:4.88 duration:0 duration_time:0 stream_index:0
[mpeg @ 0xaaaae5563b50] buffer underflow st=0 bufi=551 size=1529
pts:446400 pts_time:4.96 dts:442800 dts_time:4.92 duration:0 duration_time:0 stream_index:0
[mpeg @ 0xaaaae5563b50] buffer underflow st=0 bufi=1054 size=2023
pts:450000 pts_time:5 dts:446400 dts_time:4.96 duration:0 duration_time:0 stream_index:0
[mpeg @ 0xaaaae5563b50] buffer underflow st=0 bufi=1063 size=2720
pts:453600 pts_time:5.04 dts:450000 dts_time:5 duration:0 duration_time:0 stream_index:0
[mpeg @ 0xaaaae5563b50] buffer underflow st=0 bufi=375 size=2740
[mpeg @ 0xaaaae5563b50] buffer underflow st=0 bufi=2416 size=2740
pts:457200 pts_time:5.08 dts:453600 dts_time:5.04 duration:0 duration_time:0 stream_index:0
[mpeg @ 0xaaaae5563b50] buffer underflow st=0 bufi=1708 size=1887
pts:460800 pts_time:5.12 dts:457200 dts_time:5.08 duration:0 duration_time:0 stream_index:0
[mpeg @ 0xaaaae5563b50] buffer underflow st=0 bufi=1853 size=2419
pts:464400 pts_time:5.16 dts:460800 dts_time:5.12 duration:0 duration_time:0 stream_index:0
[mpeg @ 0xaaaae5563b50] buffer underflow st=0 bufi=1466 size=3204
pts:468000 pts_time:5.2 dts:464400 dts_time:5.16 duration:0 duration_time:0 stream_index:0
[mpeg @ 0xaaaae5563b50] buffer underflow st=0 bufi=294 size=2013
pts:471600 pts_time:5.24 dts:468000 dts_time:5.2 duration:0 duration_time:0 stream_index:0
[mpeg @ 0xaaaae5563b50] buffer underflow st=0 bufi=313 size=10575
[mpeg @ 0xaaaae5563b50] buffer underflow st=0 bufi=2354 size=10575
[mpeg @ 0xaaaae5563b50] buffer underflow st=0 bufi=4395 size=10575
[mpeg @ 0xaaaae5563b50] buffer underflow st=0 bufi=6436 size=10575
[mpeg @ 0xaaaae5563b50] buffer underflow st=0 bufi=8477 size=10575
[mpeg @ 0xaaaae5563b50] buffer underflow st=0 bufi=10518 size=10575
pts:475200 pts_time:5.28 dts:471600 dts_time:5.24 duration:0 duration_time:0 stream_index:0
[mpeg @ 0xaaaae5563b50] buffer underflow st=0 bufi=1975 size=2888
pts:478800 pts_time:5.32 dts:475200 dts_time:5.28 duration:0 duration_time:0 stream_index:0
[mpeg @ 0xaaaae5563b50] buffer underflow st=0 bufi=1119 size=2480
pts:482400 pts_time:5.36 dts:478800 dts_time:5.32 duration:0 duration_time:0 stream_index:0
[mpeg @ 0xaaaae5563b50] buffer underflow st=0 bufi=671 size=3244
[mpeg @ 0xaaaae5563b50] buffer underflow st=0 bufi=2712 size=3244
pts:486000 pts_time:5.4 dts:482400 dts_time:5.36 duration:0 duration_time:0 stream_index:0
[mpeg @ 0xaaaae5563b50] buffer underflow st=0 bufi=1500 size=1700
pts:489600 pts_time:5.44 dts:486000 dts_time:5.4 duration:0 duration_time:0 stream_index:0
[mpeg @ 0xaaaae5563b50] buffer underflow st=0 bufi=1832 size=2088
pts:493200 pts_time:5.48 dts:489600 dts_time:5.44 duration:0 duration_time:0 stream_index:0
[mpeg @ 0xaaaae5563b50] buffer underflow st=0 bufi=1776 size=3454
pts:496800 pts_time:5.52 dts:493200 dts_time:5.48 duration:0 duration_time:0 stream_index:0
[mpeg @ 0xaaaae5563b50] buffer underflow st=0 bufi=354 size=2687
[mpeg @ 0xaaaae5563b50] buffer underflow st=0 bufi=2395 size=2687
pts:500400 pts_time:5.56 dts:496800 dts_time:5.52 duration:0 duration_time:0 stream_index:0
[mpeg @ 0xaaaae5563b50] buffer underflow st=0 bufi=1740 size=2225
pts:504000 pts_time:5.6 dts:500400 dts_time:5.56 duration:0 duration_time:0 stream_index:0
[mpeg @ 0xaaaae5563b50] buffer underflow st=0 bufi=1547 size=2547
pts:507600 pts_time:5.64 dts:504000 dts_time:5.6 duration:0 duration_time:0 stream_index:0
[mpeg @ 0xaaaae5563b50] buffer underflow st=0 bufi=1032 size=1538
pts:511200 pts_time:5.68 dts:507600 dts_time:5.64 duration:0 duration_time:0 stream_index:0
[mpeg @ 0xaaaae5563b50] buffer underflow st=0 bufi=1526 size=2599
pts:514800 pts_time:5.72 dts:511200 dts_time:5.68 duration:0 duration_time:0 stream_index:0
[mpeg @ 0xaaaae5563b50] buffer underflow st=0 bufi=959 size=9166
[mpeg @ 0xaaaae5563b50] buffer underflow st=0 bufi=3000 size=9166
[mpeg @ 0xaaaae5563b50] buffer underflow st=0 bufi=5041 size=9166
[mpeg @ 0xaaaae5563b50] buffer underflow st=0 bufi=7082 size=9166
[mpeg @ 0xaaaae5563b50] buffer underflow st=0 bufi=9123 size=9166
pts:518400 pts_time:5.76 dts:514800 dts_time:5.72 duration:0 duration_time:0 stream_index:0
pts:522000 pts_time:5.8 dts:518400 dts_time:5.76 duration:0 duration_time:0 stream_index:0
[mpeg @ 0xaaaae5563b50] buffer underflow st=0 bufi=281 size=2043
pts:525600 pts_time:5.84 dts:522000 dts_time:5.8 duration:0 duration_time:0 stream_index:0
[mpeg @ 0xaaaae5563b50] buffer underflow st=0 bufi=270 size=3166
[mpeg @ 0xaaaae5563b50] buffer underflow st=0 bufi=2311 size=3166
pts:529200 pts_time:5.88 dts:525600 dts_time:5.84 duration:0 duration_time:0 stream_index:0
[mpeg @ 0xaaaae5563b50] buffer underflow st=0 bufi=1177 size=1611
pts:532800 pts_time:5.92 dts:529200 dts_time:5.88 duration:0 duration_time:0 stream_index:0
[mpeg @ 0xaaaae5563b50] buffer underflow st=0 bufi=1598 size=1941
pts:536400 pts_time:5.96 dts:532800 dts_time:5.92 duration:0 duration_time:0 stream_index:0
[mpeg @ 0xaaaae5563b50] buffer underflow st=0 bufi=1689 size=2722
pts:540000 pts_time:6 dts:536400 dts_time:5.96 duration:0 duration_time:0 stream_index:0
[mpeg @ 0xaaaae5563b50] buffer underflow st=0 bufi=999 size=2994
pts:543600 pts_time:6.04 dts:540000 dts_time:6 duration:0 duration_time:0 stream_index:0
[mpeg @ 0xaaaae5563b50] buffer underflow st=0 bufi=25 size=1636
pts:547200 pts_time:6.08 dts:543600 dts_time:6.04 duration:0 duration_time:0 stream_index:0
[mpeg @ 0xaaaae5563b50] buffer underflow st=0 bufi=421 size=1951
pts:550800 pts_time:6.12 dts:547200 dts_time:6.08 duration:0 duration_time:0 stream_index:0
[mpeg @ 0xaaaae5563b50] buffer underflow st=0 bufi=502 size=2606
[mpeg @ 0xaaaae5563b50] buffer underflow st=0 bufi=2543 size=2606
pts:554400 pts_time:6.16 dts:550800 dts_time:6.12 duration:0 duration_time:0 stream_index:0
pts:558000 pts_time:6.2 dts:554400 dts_time:6.16 duration:0 duration_time:0 stream_index:0
[mpeg @ 0xaaaae5563b50] buffer underflow st=0 bufi=126 size=10190
[mpeg @ 0xaaaae5563b50] buffer underflow st=0 bufi=2167 size=10190
[mpeg @ 0xaaaae5563b50] buffer underflow st=0 bufi=4208 size=10190
[mpeg @ 0xaaaae5563b50] buffer underflow st=0 bufi=6249 size=10190
[mpeg @ 0xaaaae5563b50] buffer underflow st=0 bufi=8290 size=10190
pts:561600 pts_time:6.24 dts:558000 dts_time:6.2 duration:0 duration_time:0 stream_index:0
[mpeg @ 0xaaaae5563b50] buffer underflow st=0 bufi=132 size=2348
[mpeg @ 0xaaaae5563b50] buffer underflow st=0 bufi=2173 size=2348
pts:565200 pts_time:6.28 dts:561600 dts_time:6.24 duration:0 duration_time:0 stream_index:0
[mpeg @ 0xaaaae5563b50] buffer underflow st=0 bufi=1857 size=2198
pts:568800 pts_time:6.32 dts:565200 dts_time:6.28 duration:0 duration_time:0 stream_index:0
[mpeg @ 0xaaaae5563b50] buffer underflow st=0 bufi=1691 size=2851
pts:572400 pts_time:6.36 dts:568800 dts_time:6.32 duration:0 duration_time:0 stream_index:0
[mpeg @ 0xaaaae5563b50] buffer underflow st=0 bufi=872 size=1540
pts:576000 pts_time:6.4 dts:572400 dts_time:6.36 duration:0 duration_time:0 stream_index:0
[mpeg @ 0xaaaae5563b50] buffer underflow st=0 bufi=1364 size=1753
pts:579600 pts_time:6.44 dts:576000 dts_time:6.4 duration:0 duration_time:0 stream_index:0
[mpeg @ 0xaaaae5563b50] buffer underflow st=0 bufi=1643 size=3012
pts:583200 pts_time:6.48 dts:579600 dts_time:6.44 duration:0 duration_time:0 stream_index:0
[mpeg @ 0xaaaae5563b50] buffer underflow st=0 bufi=663 size=2676
pts:586800 pts_time:6.52 dts:583200 dts_time:6.48 duration:0 duration_time:0 stream_index:0
[mpeg @ 0xaaaae5563b50] buffer underflow st=0 bufi=19 size=1582
pts:590400 pts_time:6.56 dts:586800 dts_time:6.52 duration:0 duration_time:0 stream_index:0
[mpeg @ 0xaaaae5563b50] buffer underflow st=0 bufi=469 size=1961
pts:594000 pts_time:6.6 dts:590400 dts_time:6.56 duration:0 duration_time:0 stream_index:0
[mpeg @ 0xaaaae5563b50] buffer underflow st=0 bufi=540 size=1940
pts:597600 pts_time:6.64 dts:594000 dts_time:6.6 duration:0 duration_time:0 stream_index:0
[mpeg @ 0xaaaae5563b50] buffer underflow st=0 bufi=632 size=2641
pts:601200 pts_time:6.68 dts:597600 dts_time:6.64 duration:0 duration_time:0 stream_index:0
[mpeg @ 0xaaaae5563b50] buffer underflow st=0 bufi=23 size=9162
[mpeg @ 0xaaaae5563b50] buffer underflow st=0 bufi=2064 size=9162
[mpeg @ 0xaaaae5563b50] buffer underflow st=0 bufi=4105 size=9162
[mpeg @ 0xaaaae5563b50] buffer underflow st=0 bufi=6146 size=9162
[mpeg @ 0xaaaae5563b50] buffer underflow st=0 bufi=8187 size=9162
pts:604800 pts_time:6.72 dts:601200 dts_time:6.68 duration:0 duration_time:0 stream_index:0
[mpeg @ 0xaaaae5563b50] buffer underflow st=0 bufi=1057 size=1677
pts:608400 pts_time:6.76 dts:604800 dts_time:6.72 duration:0 duration_time:0 stream_index:0
[mpeg @ 0xaaaae5563b50] buffer underflow st=0 bufi=1412 size=2015
pts:612000 pts_time:6.8 dts:608400 dts_time:6.76 duration:0 duration_time:0 stream_index:0
[mpeg @ 0xaaaae5563b50] buffer underflow st=0 bufi=1429 size=3146
pts:615600 pts_time:6.84 dts:612000 dts_time:6.8 duration:0 duration_time:0 stream_index:0
[mpeg @ 0xaaaae5563b50] buffer underflow st=0 bufi=315 size=1532
pts:619200 pts_time:6.88 dts:615600 dts_time:6.84 duration:0 duration_time:0 stream_index:0
[mpeg @ 0xaaaae5563b50] buffer underflow st=0 bufi=815 size=1969
pts:622800 pts_time:6.92 dts:619200 dts_time:6.88 duration:0 duration_time:0 stream_index:0
[mpeg @ 0xaaaae5563b50] buffer underflow st=0 bufi=878 size=2704
pts:626400 pts_time:6.96 dts:622800 dts_time:6.92 duration:0 duration_time:0 stream_index:0
[mpeg @ 0xaaaae5563b50] buffer underflow st=0 bufi=206 size=2710
[mpeg @ 0xaaaae5563b50] buffer underflow st=0 bufi=2247 size=2710
pts:630000 pts_time:7 dts:626400 dts_time:6.96 duration:0 duration_time:0 stream_index:0
pts:633600 pts_time:7.04 dts:630000 dts_time:7 duration:0 duration_time:0 stream_index:0
[mpeg @ 0xaaaae5563b50] buffer underflow st=0 bufi=51 size=2101
[mpeg @ 0xaaaae5563b50] buffer underflow st=0 bufi=2092 size=2101
pts:637200 pts_time:7.08 dts:633600 dts_time:7.04 duration:0 duration_time:0 stream_index:0
[mpeg @ 0xaaaae5563b50] buffer underflow st=0 bufi=2023 size=2704
pts:640800 pts_time:7.12 dts:637200 dts_time:7.08 duration:0 duration_time:0 stream_index:0
[mpeg @ 0xaaaae5563b50] buffer underflow st=0 bufi=1351 size=1733
pts:644400 pts_time:7.16 dts:640800 dts_time:7.12 duration:0 duration_time:0 stream_index:0
[mpeg @ 0xaaaae5563b50] buffer underflow st=0 bufi=1650 size=10565
[mpeg @ 0xaaaae5563b50] buffer underflow st=0 bufi=3691 size=10565
[mpeg @ 0xaaaae5563b50] buffer underflow st=0 bufi=5732 size=10565
[mpeg @ 0xaaaae5563b50] buffer underflow st=0 bufi=7773 size=10565
[mpeg @ 0xaaaae5563b50] buffer underflow st=0 bufi=9814 size=10565
pts:648000 pts_time:7.2 dts:644400 dts_time:7.16 duration:0 duration_time:0 stream_index:0
[mpeg @ 0xaaaae5563b50] buffer underflow st=0 bufi=1281 size=2924
pts:651600 pts_time:7.24 dts:648000 dts_time:7.2 duration:0 duration_time:0 stream_index:0
[mpeg @ 0xaaaae5563b50] buffer underflow st=0 bufi=389 size=2502
[mpeg @ 0xaaaae5563b50] buffer underflow st=0 bufi=2430 size=2502
pts:655200 pts_time:7.28 dts:651600 dts_time:7.24 duration:0 duration_time:0 stream_index:0
[mpeg @ 0xaaaae5563b50] buffer underflow st=0 bufi=1960 size=3301
pts:658800 pts_time:7.32 dts:655200 dts_time:7.28 duration:0 duration_time:0 stream_index:0
[mpeg @ 0xaaaae5563b50] buffer underflow st=0 bufi=691 size=1764
pts:662400 pts_time:7.36 dts:658800 dts_time:7.32 duration:0 duration_time:0 stream_index:0
[mpeg @ 0xaaaae5563b50] buffer underflow st=0 bufi=959 size=2015
pts:666000 pts_time:7.4 dts:662400 dts_time:7.36 duration:0 duration_time:0 stream_index:0
[mpeg @ 0xaaaae5563b50] buffer underflow st=0 bufi=976 size=3379
[mpeg @ 0xaaaae5563b50] buffer underflow st=0 bufi=3017 size=3379
pts:669600 pts_time:7.44 dts:666000 dts_time:7.4 duration:0 duration_time:0 stream_index:0
[mpeg @ 0xaaaae5563b50] buffer underflow st=0 bufi=1670 size=2993
pts:673200 pts_time:7.48 dts:669600 dts_time:7.44 duration:0 duration_time:0 stream_index:0
[mpeg @ 0xaaaae5563b50] buffer underflow st=0 bufi=697 size=2095
pts:676800 pts_time:7.52 dts:673200 dts_time:7.48 duration:0 duration_time:0 stream_index:0
[mpeg @ 0xaaaae5563b50] buffer underflow st=0 bufi=634 size=2714
[mpeg @ 0xaaaae5563b50] buffer underflow st=0 bufi=2675 size=2714
pts:680400 pts_time:7.56 dts:676800 dts_time:7.52 duration:0 duration_time:0 stream_index:0
[mpeg @ 0xaaaae5563b50] buffer underflow st=0 bufi=1993 size=2757
pts:684000 pts_time:7.6 dts:680400 dts_time:7.56 duration:0 duration_time:0 stream_index:0
[mpeg @ 0xaaaae5563b50] buffer underflow st=0 bufi=1268 size=2611
pts:687600 pts_time:7.64 dts:684000 dts_time:7.6 duration:0 duration_time:0 stream_index:0
[mpeg @ 0xaaaae5563b50] buffer underflow st=0 bufi=689 size=9231
[mpeg @ 0xaaaae5563b50] buffer underflow st=0 bufi=2730 size=9231
[mpeg @ 0xaaaae5563b50] buffer underflow st=0 bufi=4771 size=9231
[mpeg @ 0xaaaae5563b50] buffer underflow st=0 bufi=6812 size=9231
[mpeg @ 0xaaaae5563b50] buffer underflow st=0 bufi=8853 size=9231
pts:691200 pts_time:7.68 dts:687600 dts_time:7.64 duration:0 duration_time:0 stream_index:0
pts:694800 pts_time:7.72 dts:691200 dts_time:7.68 duration:0 duration_time:0 stream_index:0
[mpeg @ 0xaaaae5563b50] buffer underflow st=0 bufi=398 size=1546
pts:698400 pts_time:7.76 dts:694800 dts_time:7.72 duration:0 duration_time:0 stream_index:0
[mpeg @ 0xaaaae5563b50] buffer underflow st=0 bufi=884 size=2748
pts:702000 pts_time:7.8 dts:698400 dts_time:7.76 duration:0 duration_time:0 stream_index:0
[mpeg @ 0xaaaae5563b50] buffer underflow st=0 bufi=168 size=1355
pts:705600 pts_time:7.84 dts:702000 dts_time:7.8 duration:0 duration_time:0 stream_index:0
[mpeg @ 0xaaaae5563b50] buffer underflow st=0 bufi=845 size=1519
pts:709200 pts_time:7.88 dts:705600 dts_time:7.84 duration:0 duration_time:0 stream_index:0
[mpeg @ 0xaaaae5563b50] buffer underflow st=0 bufi=1358 size=2458
pts:712800 pts_time:7.92 dts:709200 dts_time:7.88 duration:0 duration_time:0 stream_index:0
[mpeg @ 0xaaaae5563b50] buffer underflow st=0 bufi=932 size=2321
pts:716400 pts_time:7.96 dts:712800 dts_time:7.92 duration:0 duration_time:0 stream_index:0
[mpeg @ 0xaaaae5563b50] buffer underflow st=0 bufi=643 size=1323
pts:720000 pts_time:8 dts:716400 dts_time:7.96 duration:0 duration_time:0 stream_index:0
[mpeg @ 0xaaaae5563b50] buffer underflow st=0 bufi=1352 size=2267
pts:723600 pts_time:8.04 dts:720000 dts_time:8 duration:0 duration_time:0 stream_index:0
[mpeg @ 0xaaaae5563b50] buffer underflow st=0 bufi=1117 size=2690
pts:727200 pts_time:8.08 dts:723600 dts_time:8.04 duration:0 duration_time:0 stream_index:0
[mpeg @ 0xaaaae5563b50] buffer underflow st=0 bufi=459 size=2006
pts:730800 pts_time:8.12 dts:727200 dts_time:8.08 duration:0 duration_time:0 stream_index:0
[mpeg @ 0xaaaae5563b50] buffer underflow st=0 bufi=485 size=10277
[mpeg @ 0xaaaae5563b50] buffer underflow st=0 bufi=2526 size=10277
[mpeg @ 0xaaaae5563b50] buffer underflow st=0 bufi=4567 size=10277
[mpeg @ 0xaaaae5563b50] buffer underflow st=0 bufi=6608 size=10277
[mpeg @ 0xaaaae5563b50] buffer underflow st=0 bufi=8649 size=10277
pts:734400 pts_time:8.16 dts:730800 dts_time:8.12 duration:0 duration_time:0 stream_index:0
[mpeg @ 0xaaaae5563b50] buffer underflow st=0 bufi=404 size=2360
pts:738000 pts_time:8.2 dts:734400 dts_time:8.16 duration:0 duration_time:0 stream_index:0
[mpeg @ 0xaaaae5563b50] buffer underflow st=0 bufi=76 size=2210
[mpeg @ 0xaaaae5563b50] buffer underflow st=0 bufi=2117 size=2210
pts:741600 pts_time:8.24 dts:738000 dts_time:8.2 duration:0 duration_time:0 stream_index:0
[mpeg @ 0xaaaae5563b50] buffer underflow st=0 bufi=1939 size=2848
pts:745200 pts_time:8.28 dts:741600 dts_time:8.24 duration:0 duration_time:0 stream_index:0
[mpeg @ 0xaaaae5563b50] buffer underflow st=0 bufi=1123 size=1608
pts:748800 pts_time:8.32 dts:745200 dts_time:8.28 duration:0 duration_time:0 stream_index:0
[mpeg @ 0xaaaae5563b50] buffer underflow st=0 bufi=1547 size=1777
pts:752400 pts_time:8.36 dts:748800 dts_time:8.32 duration:0 duration_time:0 stream_index:0
[mpeg @ 0xaaaae5563b50] buffer underflow st=0 bufi=1802 size=2992
pts:756000 pts_time:8.4 dts:752400 dts_time:8.36 duration:0 duration_time:0 stream_index:0
[mpeg @ 0xaaaae5563b50] buffer underflow st=0 bufi=842 size=2078
pts:759600 pts_time:8.44 dts:756000 dts_time:8.4 duration:0 duration_time:0 stream_index:0
[mpeg @ 0xaaaae5563b50] buffer underflow st=0 bufi=796 size=1669
pts:763200 pts_time:8.48 dts:759600 dts_time:8.44 duration:0 duration_time:0 stream_index:0
[mpeg @ 0xaaaae5563b50] buffer underflow st=0 bufi=1159 size=2395
pts:766800 pts_time:8.52 dts:763200 dts_time:8.48 duration:0 duration_time:0 stream_index:0
[mpeg @ 0xaaaae5563b50] buffer underflow st=0 bufi=796 size=1812
pts:770400 pts_time:8.56 dts:766800 dts_time:8.52 duration:0 duration_time:0 stream_index:0
[mpeg @ 0xaaaae5563b50] buffer underflow st=0 bufi=1016 size=2087
pts:774000 pts_time:8.6 dts:770400 dts_time:8.56 duration:0 duration_time:0 stream_index:0
[mpeg @ 0xaaaae5563b50] buffer underflow st=0 bufi=961 size=9212
[mpeg @ 0xaaaae5563b50] buffer underflow st=0 bufi=3002 size=9212
[mpeg @ 0xaaaae5563b50] buffer underflow st=0 bufi=5043 size=9212
[mpeg @ 0xaaaae5563b50] buffer underflow st=0 bufi=7084 size=9212
[mpeg @ 0xaaaae5563b50] buffer underflow st=0 bufi=9125 size=9212
pts:777600 pts_time:8.64 dts:774000 dts_time:8.6 duration:0 duration_time:0 stream_index:0
pts:781200 pts_time:8.68 dts:777600 dts_time:8.64 duration:0 duration_time:0 stream_index:0
[mpeg @ 0xaaaae5563b50] buffer underflow st=0 bufi=275 size=2010
pts:784800 pts_time:8.72 dts:781200 dts_time:8.68 duration:0 duration_time:0 stream_index:0
[mpeg @ 0xaaaae5563b50] buffer underflow st=0 bufi=297 size=3155
[mpeg @ 0xaaaae5563b50] buffer underflow st=0 bufi=2338 size=3155
pts:788400 pts_time:8.76 dts:784800 dts_time:8.72 duration:0 duration_time:0 stream_index:0
[mpeg @ 0xaaaae5563b50] buffer underflow st=0 bufi=1215 size=1506
pts:792000 pts_time:8.8 dts:788400 dts_time:8.76 duration:0 duration_time:0 stream_index:0
[mpeg @ 0xaaaae5563b50] buffer underflow st=0 bufi=1741 size=2012
pts:795600 pts_time:8.84 dts:792000 dts_time:8.8 duration:0 duration_time:0 stream_index:0
[mpeg @ 0xaaaae5563b50] buffer underflow st=0 bufi=1761 size=2738
pts:799200 pts_time:8.88 dts:795600 dts_time:8.84 duration:0 duration_time:0 stream_index:0
[mpeg @ 0xaaaae5563b50] buffer underflow st=0 bufi=1055 size=2739
pts:802800 pts_time:8.92 dts:799200 dts_time:8.88 duration:0 duration_time:0 stream_index:0
[mpeg @ 0xaaaae5563b50] buffer underflow st=0 bufi=348 size=1576
pts:806400 pts_time:8.96 dts:802800 dts_time:8.92 duration:0 duration_time:0 stream_index:0
[mpeg @ 0xaaaae5563b50] buffer underflow st=0 bufi=804 size=2004
pts:810000 pts_time:9 dts:806400 dts_time:8.96 duration:0 duration_time:0 stream_index:0
[mpeg @ 0xaaaae5563b50] buffer underflow st=0 bufi=832 size=2699
pts:813600 pts_time:9.04 dts:810000 dts_time:9 duration:0 duration_time:0 stream_index:0
[mpeg @ 0xaaaae5563b50] buffer underflow st=0 bufi=153 size=1683
pts:817200 pts_time:9.08 dts:813600 dts_time:9.04 duration:0 duration_time:0 stream_index:0
[mpeg @ 0xaaaae5563b50] buffer underflow st=0 bufi=502 size=10190
[mpeg @ 0xaaaae5563b50] buffer underflow st=0 bufi=2543 size=10190
[mpeg @ 0xaaaae5563b50] buffer underflow st=0 bufi=4584 size=10190
[mpeg @ 0xaaaae5563b50] buffer underflow st=0 bufi=6625 size=10190
[mpeg @ 0xaaaae5563b50] buffer underflow st=0 bufi=8666 size=10190
pts:820800 pts_time:9.12 dts:817200 dts_time:9.08 duration:0 duration_time:0 stream_index:0
[mpeg @ 0xaaaae5563b50] buffer underflow st=0 bufi=508 size=2374
pts:824400 pts_time:9.16 dts:820800 dts_time:9.12 duration:0 duration_time:0 stream_index:0
[mpeg @ 0xaaaae5563b50] buffer underflow st=0 bufi=166 size=2210
pts:828000 pts_time:9.2 dts:824400 dts_time:9.16 duration:0 duration_time:0 stream_index:0
[mpeg @ 0xaaaae5563b50] buffer underflow st=0 bufi=2207 size=2210
[mpeg @ 0xaaaae5563b50] buffer underflow st=0 bufi=2029 size=3191
pts:831600 pts_time:9.24 dts:828000 dts_time:9.2 duration:0 duration_time:0 stream_index:0
[mpeg @ 0xaaaae5563b50] buffer underflow st=0 bufi=870 size=1674
pts:835200 pts_time:9.28 dts:831600 dts_time:9.24 duration:0 duration_time:0 stream_index:0
[mpeg @ 0xaaaae5563b50] buffer underflow st=0 bufi=1228 size=2060
pts:838800 pts_time:9.32 dts:835200 dts_time:9.28 duration:0 duration_time:0 stream_index:0
[mpeg @ 0xaaaae5563b50] buffer underflow st=0 bufi=1200 size=3537
[mpeg @ 0xaaaae5563b50] buffer underflow st=0 bufi=3241 size=3537
pts:842400 pts_time:9.36 dts:838800 dts_time:9.32 duration:0 duration_time:0 stream_index:0
[mpeg @ 0xaaaae5563b50] buffer underflow st=0 bufi=1736 size=2912
pts:846000 pts_time:9.4 dts:842400 dts_time:9.36 duration:0 duration_time:0 stream_index:0
[mpeg @ 0xaaaae5563b50] buffer underflow st=0 bufi=856 size=2237
pts:849600 pts_time:9.44 dts:846000 dts_time:9.4 duration:0 duration_time:0 stream_index:0
[mpeg @ 0xaaaae5563b50] buffer underflow st=0 bufi=651 size=2773
[mpeg @ 0xaaaae5563b50] buffer underflow st=0 bufi=2692 size=2773
pts:853200 pts_time:9.48 dts:849600 dts_time:9.44 duration:0 duration_time:0 stream_index:0
[mpeg @ 0xaaaae5563b50] buffer underflow st=0 bufi=1951 size=2786
pts:856800 pts_time:9.52 dts:853200 dts_time:9.48 duration:0 duration_time:0 stream_index:0
[mpeg @ 0xaaaae5563b50] buffer underflow st=0 bufi=1197 size=2497
pts:860400 pts_time:9.56 dts:856800 dts_time:9.52 duration:0 duration_time:0 stream_index:0
[mpeg @ 0xaaaae5563b50] buffer underflow st=0 bufi=732 size=9210
[mpeg @ 0xaaaae5563b50] buffer underflow st=0 bufi=2773 size=9210
[mpeg @ 0xaaaae5563b50] buffer underflow st=0 bufi=4814 size=9210
[mpeg @ 0xaaaae5563b50] buffer underflow st=0 bufi=6855 size=9210
[mpeg @ 0xaaaae5563b50] buffer underflow st=0 bufi=8896 size=9210
pts:864000 pts_time:9.6 dts:860400 dts_time:9.56 duration:0 duration_time:0 stream_index:0
[mpeg @ 0xaaaae5563b50] buffer underflow st=0 bufi=1718 size=1985
pts:867600 pts_time:9.64 dts:864000 dts_time:9.6 duration:0 duration_time:0 stream_index:0
[mpeg @ 0xaaaae5563b50] buffer underflow st=0 bufi=1765 size=2557
pts:871200 pts_time:9.68 dts:867600 dts_time:9.64 duration:0 duration_time:0 stream_index:0
[mpeg @ 0xaaaae5563b50] buffer underflow st=0 bufi=1240 size=3428
[mpeg @ 0xaaaae5563b50] buffer underflow st=0 bufi=3281 size=3428
pts:874800 pts_time:9.72 dts:871200 dts_time:9.68 duration:0 duration_time:0 stream_index:0
pts:878400 pts_time:9.76 dts:874800 dts_time:9.72 duration:0 duration_time:0 stream_index:0
[mpeg @ 0xaaaae5563b50] buffer underflow st=0 bufi=295 size=1921
pts:882000 pts_time:9.8 dts:878400 dts_time:9.76 duration:0 duration_time:0 stream_index:0
[mpeg @ 0xaaaae5563b50] buffer underflow st=0 bufi=406 size=2857
[mpeg @ 0xaaaae5563b50] buffer underflow st=0 bufi=2447 size=2857
pts:885600 pts_time:9.84 dts:882000 dts_time:9.8 duration:0 duration_time:0 stream_index:0
[mpeg @ 0xaaaae5563b50] buffer underflow st=0 bufi=1622 size=2736
pts:889200 pts_time:9.88 dts:885600 dts_time:9.84 duration:0 duration_time:0 stream_index:0
[mpeg @ 0xaaaae5563b50] buffer underflow st=0 bufi=918 size=1505
pts:892800 pts_time:9.92 dts:889200 dts_time:9.88 duration:0 duration_time:0 stream_index:0
[mpeg @ 0xaaaae5563b50] buffer underflow st=0 bufi=1445 size=1788
[mpeg @ 0xaaaae5563b50] buffer underflow st=0 bufi=1689 size=2168
pts:896400 pts_time:9.96 dts:892800 dts_time:9.92 duration:0 duration_time:0 stream_index:0
pts:900000 pts_time:10 dts:896400 dts_time:9.96 duration:0 duration_time:0 stream_index:0
